<svg xmlns="http://www.w3.org/2000/svg" xmlns:xlink="http://www.w3.org/1999/xlink" version="1.1" x="0px" y="0px" viewBox="0 0 100 125" fill="#bcc2cf" enable-background="new 0 0 100 100" xml:space="preserve"><g><path d="M77.742,54.63C77.896,53.661,78,52.677,78,51.666C78,41.359,69.641,33,59.333,33c-8.104,0-14.981,5.177-17.562,12.393   c-1.916-1.064-4.088-1.727-6.438-1.727c-6.552,0-11.974,4.74-13.094,10.969C17.521,55.739,14,59.947,14,65   c0,5.891,4.776,10.666,10.667,10.666l0,0h50.666l0,0l0,0C81.224,75.666,86,70.891,86,65C86,59.942,82.469,55.727,77.742,54.63z"/></g></svg>